<svg xmlns="http://www.w3.org/2000/svg" viewBox="0 0 309.68 66.19"><defs><style>.cls-1{fill:#fff;}</style></defs><path class="cls-1" d="M193.94,133c-14.75,0-23.78-8.74-23.78-23.59.1-21.64,16.31-42.51,38.92-42.51,14.75,0,24.26,7.77,24.26,23C233.34,112.33,217.52,133,193.94,133ZM208,71.76c-16.21,0-23.58,26.4-23.58,39.21,0,7.47,1.94,17.08,11.26,17.08,15.91,0,23.39-27.56,23.39-40.28C219.08,80.39,217.14,71.76,208,71.76Z" transform="translate(-170.16 -66.9)"/><path class="cls-1" d="M285.32,131.74H276.1a1.62,1.62,0,0,1-1.58-2l5.58-26.58a1.61,1.61,0,0,0-1.58-1.95h-22.7a1.61,1.61,0,0,0-1.58,1.29l-5.78,27.9a1.61,1.61,0,0,1-1.58,1.29h-9.21a1.61,1.61,0,0,1-1.58-2l12.61-60a1.62,1.62,0,0,1,1.59-1.28h9.11a1.62,1.62,0,0,1,1.59,2l-5,23.86a1.62,1.62,0,0,0,1.58,2h22.7a1.63,1.63,0,0,0,1.59-1.3L287,69.75a1.63,1.63,0,0,1,1.59-1.29h9.21a1.61,1.61,0,0,1,1.58,1.94l-12.52,60A1.62,1.62,0,0,1,285.32,131.74Z" transform="translate(-170.16 -66.9)"/><path class="cls-1" d="M344.07,96.31a1.62,1.62,0,0,0,0,3c4.8,1.9,8.63,5.39,8.63,11.37,0,13.2-11.36,22.32-24.07,22.32a26.29,26.29,0,0,1-10-2,1.59,1.59,0,0,1-.95-1.27l-.08-.59a1.62,1.62,0,0,1,1.85-1.81,32.83,32.83,0,0,0,5.34.49c8.44,0,13.68-10.39,13.68-17.86,0-9.32-8.59-9.44-15.67-9.42a1.61,1.61,0,0,0-1.58,1.29l-5.87,28.58a1.63,1.63,0,0,1-1.59,1.29h-9.21a1.62,1.62,0,0,1-1.58-2l12.62-60.07a1.61,1.61,0,0,1,1.56-1.28c5.88-.09,11.75-.18,17.63-.18,7.77.1,20.77.49,20.77,11.07A19,19,0,0,1,344.07,96.31Zm-12-23.78h-3.34a1.61,1.61,0,0,0-1.58,1.29l-4.28,20.45a1.62,1.62,0,0,0,1.59,2h3.05c8.83,0,14.56-6.8,14.56-15.44C342.05,74.57,337.59,72.53,332.05,72.53Z" transform="translate(-170.16 -66.9)"/><path class="cls-1" d="M412,108.74c-3.4,16.2-13.1,24.36-29.7,24.36-18.73,0-22.22-10-18.92-25.72l8-37.64A1.62,1.62,0,0,1,373,68.46h10.28a1.62,1.62,0,0,1,1.59,1.94l-8.33,40c-1.65,7.86-1.55,17.47,9.41,17.47s15.92-9.71,17.86-19.22l8.08-38.89a1.62,1.62,0,0,1,1.58-1.29h5a1.62,1.62,0,0,1,1.59,2Z" transform="translate(-170.16 -66.9)"/><path class="cls-1" d="M463,110.75l-3.42,16.18a1.64,1.64,0,0,1-1.68,1.29c-12.57-.55-21.6-8.51-21.6-21.71,0-18.83,13.29-33.39,32.41-33.39a48,48,0,0,1,9.2,1,1.62,1.62,0,0,0,1.93-1.62l0-2.14a1.6,1.6,0,0,0-1.14-1.52A58.69,58.69,0,0,0,462.21,67c-20.87,0-40.76,19.9-40.76,40.77,0,15.62,12,25.23,27.08,25.23,7.17,0,14.35-.43,21.52-1.14a1.62,1.62,0,0,0,1.43-1.28l4-19,.89-4.25a1.62,1.62,0,0,0-1.58-2h-9.3a1.63,1.63,0,0,0-1.58,1.28Z" transform="translate(-170.16 -66.9)"/></svg>
